<svg xmlns="http://www.w3.org/2000/svg" xmlns:xlink="http://www.w3.org/1999/xlink" width="12" height="12" version="1.1" viewBox="0 0 12 12"><title>icon-plus-12</title><desc>Created with Sketch.</desc><g id="Symbols" fill-rule="evenodd"><g id="icon-plus-12" fill-rule="nonzero"><g id="Group"><path id="Shape" d="M5,1.27272727 C5,0.569819409 5.44771525,0 6,0 C6.55228475,0 7,0.569819409 7,1.27272727 L7,10.7272727 C7,11.4301806 6.55228475,12 6,12 C5.44771525,12 5,11.4301806 5,10.7272727 L5,1.27272727 Z" transform="translate(6.000000, 6.000000) scale(1, -1) translate(-6.000000, -6.000000)"/><path id="Shape-Copy" d="M5,1.27272727 C5,0.569819409 5.44771525,0 6,0 C6.55228475,0 7,0.569819409 7,1.27272727 L7,10.7272727 C7,11.4301806 6.55228475,12 6,12 C5.44771525,12 5,11.4301806 5,10.7272727 L5,1.27272727 Z" transform="translate(6.000000, 6.000000) scale(1, -1) rotate(90.000000) translate(-6.000000, -6.000000)"/></g></g></g></svg>